<svg xmlns="http://www.w3.org/2000/svg" version="1.1" xmlns:xlink="http://www.w3.org/1999/xlink" xmlns:svgjs="http://svgjs.com/svgjs" width="256" height="256"><svg width="256" height="256" viewBox="0 0 256 256" fill="none" xmlns="http://www.w3.org/2000/svg">
<path d="M132.5 220C124.03 220 117.163 213.133 117.163 204.663V51.0438H63.0219C55.2778 51.0438 49 44.7659 49 37.0219V37.0219C49 29.2778 55.2778 23 63.0219 23H201.978C209.722 23 216 29.2778 216 37.0219V37.0219C216 44.7659 209.722 51.0438 201.978 51.0438H147.837V204.663C147.837 213.133 140.97 220 132.5 220V220Z" fill="#14A5AE"></path>
<path d="M77 220C68.4538 220 61.5944 217.57 56.4217 212.711C51.4739 207.851 49 201.335 49 193.163C49 184.548 51.4739 177.701 56.4217 172.62C61.5944 167.54 68.4538 165 77 165C85.5462 165 92.2932 167.54 97.241 172.62C102.414 177.701 105 184.548 105 193.163C105 201.335 102.414 207.851 97.241 212.711C92.2932 217.57 85.5462 220 77 220Z" fill="#8AD311"></path>
</svg><style>@media (prefers-color-scheme: light) { :root { filter: none; } }
</style></svg>