<svg width="209" height="33" viewBox="0 0 209 33" fill="none" xmlns="http://www.w3.org/2000/svg">
<path d="M199.164 32.32C197.67 32.32 196.364 32.0933 195.244 31.64C194.15 31.16 193.27 30.4933 192.604 29.64C191.964 28.7867 191.577 27.7733 191.444 26.6H195.044C195.204 27.3733 195.63 27.9867 196.324 28.44C197.044 28.8933 197.99 29.12 199.164 29.12H200.844C202.257 29.12 203.31 28.84 204.004 28.28C204.697 27.6933 205.044 26.92 205.044 25.96C205.044 25.0267 204.724 24.2933 204.084 23.76C203.47 23.2 202.55 22.8267 201.324 22.64L198.364 22.16C196.204 21.7867 194.59 21.12 193.524 20.16C192.484 19.1733 191.964 17.7467 191.964 15.88C191.964 13.9067 192.59 12.3867 193.844 11.32C195.097 10.2267 196.977 9.68 199.484 9.68H201.004C203.11 9.68 204.804 10.1733 206.084 11.16C207.364 12.1467 208.137 13.48 208.404 15.16H204.804C204.644 14.4667 204.244 13.92 203.604 13.52C202.964 13.0933 202.097 12.88 201.004 12.88H199.484C198.124 12.88 197.124 13.1333 196.484 13.64C195.87 14.1467 195.564 14.9067 195.564 15.92C195.564 16.8267 195.83 17.4933 196.364 17.92C196.897 18.3467 197.737 18.6533 198.884 18.84L201.844 19.32C204.217 19.6933 205.937 20.3867 207.004 21.4C208.097 22.4133 208.644 23.88 208.644 25.8C208.644 27.8267 207.99 29.4267 206.684 30.6C205.404 31.7467 203.457 32.32 200.844 32.32H199.164Z" fill="#14A5AE"/>
<path d="M182.859 32C181.579 32 180.459 31.7467 179.499 31.24C178.539 30.7333 177.793 30.0133 177.259 29.08C176.726 28.1467 176.459 27.0533 176.459 25.8V6.08H171.699C170.794 6.08 170.059 5.34575 170.059 4.44V4.44C170.059 3.53425 170.794 2.8 171.699 2.8H180.059V25.8C180.059 26.7067 180.313 27.4267 180.819 27.96C181.326 28.4667 182.006 28.72 182.859 28.72H187.219C188.125 28.72 188.859 29.4543 188.859 30.36V30.36C188.859 31.2657 188.125 32 187.219 32H182.859Z" fill="#14A5AE"/>
<path d="M160.875 32.32C159.115 32.32 157.595 31.9867 156.315 31.32C155.035 30.6533 154.035 29.6933 153.315 28.44C152.622 27.16 152.275 25.6533 152.275 23.92V21.08C152.275 19.32 152.622 17.8133 153.315 16.56C154.035 15.3067 155.035 14.3467 156.315 13.68C157.595 13.0133 159.115 12.68 160.875 12.68C162.635 12.68 164.155 13.0133 165.435 13.68C166.715 14.3467 167.702 15.3067 168.395 16.56C169.115 17.8133 169.475 19.3067 169.475 21.04V23.92C169.475 25.6533 169.115 27.16 168.395 28.44C167.702 29.6933 166.715 30.6533 165.435 31.32C164.155 31.9867 162.635 32.32 160.875 32.32ZM160.875 29.12C162.448 29.12 163.675 28.68 164.555 27.8C165.435 26.92 165.875 25.6267 165.875 23.92V21.08C165.875 19.3733 165.435 18.08 164.555 17.2C163.675 16.32 162.448 15.88 160.875 15.88C159.328 15.88 158.102 16.32 157.195 17.2C156.315 18.08 155.875 19.3733 155.875 21.08V23.92C155.875 25.6267 156.315 26.92 157.195 27.8C158.102 28.68 159.328 29.12 160.875 29.12Z" fill="#14A5AE"/>
<path d="M140.891 32.32C139.131 32.32 137.611 31.9867 136.331 31.32C135.051 30.6533 134.051 29.6933 133.331 28.44C132.637 27.16 132.291 25.6533 132.291 23.92V21.08C132.291 19.32 132.637 17.8133 133.331 16.56C134.051 15.3067 135.051 14.3467 136.331 13.68C137.611 13.0133 139.131 12.68 140.891 12.68C142.651 12.68 144.171 13.0133 145.451 13.68C146.731 14.3467 147.717 15.3067 148.411 16.56C149.131 17.8133 149.491 19.3067 149.491 21.04V23.92C149.491 25.6533 149.131 27.16 148.411 28.44C147.717 29.6933 146.731 30.6533 145.451 31.32C144.171 31.9867 142.651 32.32 140.891 32.32ZM140.891 29.12C142.464 29.12 143.691 28.68 144.571 27.8C145.451 26.92 145.891 25.6267 145.891 23.92V21.08C145.891 19.3733 145.451 18.08 144.571 17.2C143.691 16.32 142.464 15.88 140.891 15.88C139.344 15.88 138.117 16.32 137.211 17.2C136.331 18.08 135.891 19.3733 135.891 21.08V23.92C135.891 25.6267 136.331 26.92 137.211 27.8C138.117 28.68 139.344 29.12 140.891 29.12Z" fill="#14A5AE"/>
<path d="M120.906 32C119.912 32 119.106 31.1941 119.106 30.2V6.04H112.746C111.84 6.04 111.106 5.30575 111.106 4.4V4.4C111.106 3.49425 111.84 2.76 112.746 2.76H129.066C129.972 2.76 130.706 3.49425 130.706 4.4V4.4C130.706 5.30575 129.972 6.04 129.066 6.04H122.706V30.2C122.706 31.1941 121.9 32 120.906 32V32Z" fill="#14A5AE"/>
<path d="M107.922 32.4C106.909 32.4 106.095 32.1067 105.482 31.52C104.895 30.9333 104.602 30.1467 104.602 29.16C104.602 28.12 104.895 27.2933 105.482 26.68C106.095 26.0667 106.909 25.76 107.922 25.76C108.935 25.76 109.735 26.0667 110.322 26.68C110.935 27.2933 111.242 28.12 111.242 29.16C111.242 30.1467 110.935 30.9333 110.322 31.52C109.735 32.1067 108.935 32.4 107.922 32.4Z" fill="#8AD311"/>
<path d="M91.2575 32.32C89.7642 32.32 88.4575 32.0933 87.3375 31.64C86.2442 31.16 85.3642 30.4933 84.6975 29.64C84.0575 28.7867 83.6708 27.7733 83.5375 26.6H87.1375C87.2975 27.3733 87.7242 27.9867 88.4175 28.44C89.1375 28.8933 90.0842 29.12 91.2575 29.12H92.9375C94.3508 29.12 95.4042 28.84 96.0975 28.28C96.7908 27.6933 97.1375 26.92 97.1375 25.96C97.1375 25.0267 96.8175 24.2933 96.1775 23.76C95.5642 23.2 94.6442 22.8267 93.4175 22.64L90.4575 22.16C88.2975 21.7867 86.6842 21.12 85.6175 20.16C84.5775 19.1733 84.0575 17.7467 84.0575 15.88C84.0575 13.9067 84.6842 12.3867 85.9375 11.32C87.1908 10.2267 89.0708 9.68 91.5775 9.68H93.0975C95.2042 9.68 96.8975 10.1733 98.1775 11.16C99.4575 12.1467 100.231 13.48 100.497 15.16H96.8975C96.7375 14.4667 96.3375 13.92 95.6975 13.52C95.0575 13.0933 94.1908 12.88 93.0975 12.88H91.5775C90.2175 12.88 89.2175 13.1333 88.5775 13.64C87.9642 14.1467 87.6575 14.9067 87.6575 15.92C87.6575 16.8267 87.9242 17.4933 88.4575 17.92C88.9908 18.3467 89.8308 18.6533 90.9775 18.84L93.9375 19.32C96.3108 19.6933 98.0308 20.3867 99.0975 21.4C100.191 22.4133 100.738 23.88 100.738 25.8C100.738 27.8267 100.084 29.4267 98.7775 30.6C97.4975 31.7467 95.5508 32.32 92.9375 32.32H91.2575Z" fill="#14A5AE"/>
<path d="M74.9531 32C73.6731 32 72.5531 31.7467 71.5931 31.24C70.6331 30.7333 69.8865 30.0133 69.3531 29.08C68.8198 28.1467 68.5531 27.0533 68.5531 25.8V6.08H63.7931C62.8874 6.08 62.1531 5.34575 62.1531 4.44V4.44C62.1531 3.53425 62.8874 2.8 63.7931 2.8H72.1531V25.8C72.1531 26.7067 72.4065 27.4267 72.9131 27.96C73.4198 28.4667 74.0998 28.72 74.9531 28.72H79.3131C80.2189 28.72 80.9531 29.4543 80.9531 30.36V30.36C80.9531 31.2657 80.2189 32 79.3131 32H74.9531Z" fill="#14A5AE"/>
<path d="M44.0088 32C43.103 32 42.3688 31.2657 42.3688 30.36V30.36C42.3688 29.4543 43.103 28.72 44.0088 28.72H50.1688V13.28H45.0087C44.103 13.28 43.3688 12.5457 43.3688 11.64V11.64C43.3688 10.7343 44.103 10 45.0088 10H53.7687V28.72H59.5287C60.4345 28.72 61.1687 29.4543 61.1687 30.36V30.36C61.1687 31.2657 60.4345 32 59.5287 32H44.0088ZM51.5688 6.04C50.6888 6.04 49.9954 5.81333 49.4888 5.36C48.9821 4.90667 48.7288 4.29333 48.7288 3.52C48.7288 2.72 48.9821 2.09333 49.4888 1.64C49.9954 1.16 50.6888 0.92 51.5688 0.92C52.4488 0.92 53.1421 1.16 53.6488 1.64C54.1554 2.09333 54.4087 2.72 54.4087 3.52C54.4087 4.29333 54.1554 4.90667 53.6488 5.36C53.1421 5.81333 52.4488 6.04 51.5688 6.04Z" fill="#14A5AE"/>
<path d="M33.3844 32C31.491 32 30.011 31.4933 28.9444 30.48C27.9044 29.4667 27.3844 28.04 27.3844 26.2V13.28H22.8244C21.9186 13.28 21.1844 12.5457 21.1844 11.64V11.64C21.1844 10.7343 21.9186 10 22.8244 10H27.3844V5.6C27.3844 4.60589 28.1903 3.8 29.1844 3.8V3.8C30.1785 3.8 30.9844 4.60589 30.9844 5.6V10H38.1444C39.0501 10 39.7844 10.7343 39.7844 11.64V11.64C39.7844 12.5457 39.0501 13.28 38.1444 13.28H30.9844V26.2C30.9844 27.88 31.7844 28.72 33.3844 28.72H37.7444C38.6501 28.72 39.3844 29.4543 39.3844 30.36V30.36C39.3844 31.2657 38.6501 32 37.7444 32H33.3844Z" fill="#14A5AE"/>
<path d="M9 32.4C6.28 32.4 4.2 31.6533 2.76 30.16C1.32 28.64 0.6 26.5867 0.6 24V5.6C0.6 4.60589 1.40589 3.8 2.4 3.8V3.8C3.39411 3.8 4.2 4.60589 4.2 5.6V24C4.2 25.6 4.58667 26.8667 5.36 27.8C6.16 28.7333 7.37333 29.2 9 29.2C10.6 29.2 11.8 28.7333 12.6 27.8C13.4 26.8667 13.8 25.6 13.8 24V5.6C13.8 4.60589 14.6059 3.8 15.6 3.8V3.8C16.5941 3.8 17.4 4.60589 17.4 5.6V24C17.4 26.6133 16.68 28.6667 15.24 30.16C13.8267 31.6533 11.7467 32.4 9 32.4Z" fill="#14A5AE"/>
</svg>
